<svg width="865" height="714" viewBox="0 0 865 714" fill="none" xmlns="http://www.w3.org/2000/svg">
<g filter="url(#filter0_i_3_738)">
<path fill-rule="evenodd" clip-rule="evenodd" d="M320.796 712.453C428 727.946 381.213 622.658 434 593.522C498.123 558.129 846.5 632.546 865 535.056C865 366.697 639.14 368.009 614.5 296.237C590.613 226.657 544.646 113.771 493.5 60.8708C444.544 10.2354 316.5 -46.0685 245 60.8708C193.5 142.325 223.659 181.247 175.556 213.166C124.621 246.964 60.1357 265.071 31.2891 318.946C0.0269737 377.332 -12.3543 452.014 15.4941 512.102C42.5992 570.585 116.704 584.178 170.611 619.555C221.059 652.661 260.446 712.793 320.796 712.453Z" fill="#162C4E"/>
</g>
<defs>
<filter id="filter0_i_3_738" x="0" y="0" width="865" height="718" filterUnits="userSpaceOnUse" color-interpolation-filters="sRGB">
<feFlood flood-opacity="0" result="BackgroundImageFix"/>
<feBlend mode="normal" in="SourceGraphic" in2="BackgroundImageFix" result="shape"/>
<feColorMatrix in="SourceAlpha" type="matrix" values="0 0 0 0 0 0 0 0 0 0 0 0 0 0 0 0 0 0 127 0" result="hardAlpha"/>
<feOffset dy="4"/>
<feGaussianBlur stdDeviation="15"/>
<feComposite in2="hardAlpha" operator="arithmetic" k2="-1" k3="1"/>
<feColorMatrix type="matrix" values="0 0 0 0 0 0 0 0 0 0 0 0 0 0 0 0 0 0 1 0"/>
<feBlend mode="normal" in2="shape" result="effect1_innerShadow_3_738"/>
</filter>
</defs>
</svg>
